<svg xmlns="http://www.w3.org/2000/svg" fill="none" viewBox="0 0 50 50" width="100%" data-fade-x="2" class="switch-svg"><path fill="currentColor" fill-rule="evenodd" d="M15.605 29.522v6.986c0 .482.39.873.873.873h6.985c.482 0 .873-.391.873-.873v-6.986a.873.873 0 0 0-.873-.873h-6.985a.873.873 0 0 0-.873.873Zm-2.62 6.986A3.493 3.493 0 0 0 16.478 40h6.985a3.493 3.493 0 0 0 3.492-3.492v-6.986a3.493 3.493 0 0 0-3.492-3.492h-6.985a3.492 3.492 0 0 0-3.493 3.492v6.986ZM33.068 29.522v6.986c0 .482.39.873.873.873h6.985c.482 0 .873-.391.873-.873v-6.986a.873.873 0 0 0-.873-.873H33.94a.873.873 0 0 0-.873.873Zm-2.62 6.986A3.493 3.493 0 0 0 33.941 40h6.985a3.493 3.493 0 0 0 3.492-3.492v-6.986a3.493 3.493 0 0 0-3.492-3.492H33.94a3.493 3.493 0 0 0-3.493 3.492v6.986ZM17.35 12.057v6.986c0 .482-.39.873-.873.873H9.492a.873.873 0 0 1-.873-.873v-6.986c0-.482.39-.873.873-.873h6.985c.482 0 .873.391.873.873Zm2.62 6.986a3.493 3.493 0 0 1-3.493 3.492H9.492A3.493 3.493 0 0 1 6 19.043v-6.986a3.493 3.493 0 0 1 3.492-3.492h6.985a3.492 3.492 0 0 1 3.493 3.492v6.986ZM26.082 12.057v6.986c0 .482.391.873.873.873h6.986a.873.873 0 0 0 .873-.873v-6.986a.873.873 0 0 0-.873-.873h-6.986a.873.873 0 0 0-.873.873Zm-2.62 6.986a3.493 3.493 0 0 0 3.493 3.492h6.986a3.493 3.493 0 0 0 3.492-3.492v-6.986a3.492 3.492 0 0 0-3.492-3.492h-6.986a3.493 3.493 0 0 0-3.492 3.492v6.986Z" clip-rule="evenodd"></path></svg>