<svg xmlns="http://www.w3.org/2000/svg" fill="none" viewBox="0 0 50 50" width="100%" data-fade-x="1" class="switch-svg"><g fill="currentColor" fill-rule="evenodd" clip-path="url(#clip0_2988_5785)" clip-rule="evenodd"><path d="M17.939 13.492v22.687c0 .483.39.873.873.873h12.302c.482 0 .873-.39.873-.873V13.492a.873.873 0 0 0-.873-.873H18.812a.873.873 0 0 0-.873.873Zm-2.62 22.687a3.493 3.493 0 0 0 3.493 3.493h12.302a3.493 3.493 0 0 0 3.492-3.493V13.492a3.493 3.493 0 0 0-3.492-3.493H18.812a3.493 3.493 0 0 0-3.493 3.493v22.687ZM1.62 17.94v13.786c0 .482.39.873.873.873H8.86c.482 0 .873-.39.873-.873V17.941a.873.873 0 0 0-.873-.874H2.493a.873.873 0 0 0-.874.873ZM-1 31.727a3.492 3.492 0 0 0 3.493 3.493H8.86a3.493 3.493 0 0 0 3.493-3.493V17.941a3.493 3.493 0 0 0-3.493-3.493H2.493A3.493 3.493 0 0 0-1 17.94v13.786ZM48.307 17.94v13.786a.873.873 0 0 1-.873.873h-6.367a.873.873 0 0 1-.873-.873V17.941c0-.483.39-.874.873-.874h6.367c.482 0 .873.391.873.873Zm2.62 13.786a3.493 3.493 0 0 1-3.493 3.493h-6.367a3.493 3.493 0 0 1-3.493-3.493V17.941a3.493 3.493 0 0 1 3.493-3.493h6.367a3.493 3.493 0 0 1 3.493 3.492v13.786Z"></path></g></svg>